HIERARCHY
ROOT joint_Root
{
	OFFSET 0.0 0.0 0.0
	CHANNELS 6 Xposition Yposition Zposition Zrotation Xrotation Yrotation 
	JOINT Hips
	{
		OFFSET -17.1583 93.1646 452.98
		CHANNELS 6 Xposition Yposition Zposition Zrotation Xrotation Yrotation 
		JOINT Spine
		{
			OFFSET 15.7357 0.0 0.0
			CHANNELS 6 Xposition Yposition Zposition Zrotation Xrotation Yrotation 
			JOINT Chest
			{
				OFFSET 8.98455 -0.406207 0.0
				CHANNELS 6 Xposition Yposition Zposition Zrotation Xrotation Yrotation 
				JOINT Neck
				{
					OFFSET 16.3773 0.0 0.0
					CHANNELS 6 Xposition Yposition Zposition Zrotation Xrotation Yrotation 
					JOINT Head
					{
						OFFSET 6.45672 0.0 0.0
						CHANNELS 6 Xposition Yposition Zposition Zrotation Xrotation Yrotation 
						End Site
						{
							OFFSET 0.0 0.0 0.0
						}
					}
				}
				JOINT Shoulder_L
				{
					OFFSET 12.9942 -0.242716 4.98039
					CHANNELS 6 Xposition Yposition Zposition Zrotation Xrotation Yrotation 
					JOINT UpperArm_L
					{
						OFFSET 5.34809 0.0 0.0
						CHANNELS 6 Xposition Yposition Zposition Zrotation Xrotation Yrotation 
						JOINT LowerArm_L
						{
							OFFSET 24.3286 1.87007e-05 0.0
							CHANNELS 6 Xposition Yposition Zposition Zrotation Xrotation Yrotation 
							JOINT Hand_L
							{
								OFFSET 22.2916 0.0 0.0
								CHANNELS 6 Xposition Yposition Zposition Zrotation Xrotation Yrotation 
								End Site
								{
									OFFSET 0.0 0.0 0.0
								}
							}
						}
					}
				}
				JOINT Shoulder_R
				{
					OFFSET 12.9945 -0.242716 -4.98039
					CHANNELS 6 Xposition Yposition Zposition Zrotation Xrotation Yrotation 
					JOINT UpperArm_R
					{
						OFFSET -5.34813 0.0 0.0
						CHANNELS 6 Xposition Yposition Zposition Zrotation Xrotation Yrotation 
						JOINT LowerArm_R
						{
							OFFSET -24.3289 0.000322201 0.0
							CHANNELS 6 Xposition Yposition Zposition Zrotation Xrotation Yrotation 
							JOINT Hand_R
							{
								OFFSET -22.2915 -0.000108084 0.0
								CHANNELS 6 Xposition Yposition Zposition Zrotation Xrotation Yrotation 
								End Site
								{
									OFFSET 0.0 0.0 0.0
								}
							}
						}
					}
				}
			}
		}
		JOINT UpperLeg_L
		{
			OFFSET -2.19248 -6.46944 0.0
			CHANNELS 6 Xposition Yposition Zposition Zrotation Xrotation Yrotation 
			JOINT LowerLeg_L
			{
				OFFSET 39.0811 0.0 -1.23785e-05
				CHANNELS 6 Xposition Yposition Zposition Zrotation Xrotation Yrotation 
				JOINT Foot_L
				{
					OFFSET 40.9854 0.0 -1.26872e-05
					CHANNELS 6 Xposition Yposition Zposition Zrotation Xrotation Yrotation 
					JOINT Toes_L
					{
						OFFSET 11.7543 0.0 0.0
						CHANNELS 6 Xposition Yposition Zposition Zrotation Xrotation Yrotation 
						End Site
						{
							OFFSET 0.0 0.0 0.0
						}
					}
				}
			}
		}
		JOINT UpperLeg_R
		{
			OFFSET -2.19251 6.46944 0.0
			CHANNELS 6 Xposition Yposition Zposition Zrotation Xrotation Yrotation 
			JOINT LowerLeg_R
			{
				OFFSET -39.0811 -0.00228153 -0.0401928
				CHANNELS 6 Xposition Yposition Zposition Zrotation Xrotation Yrotation 
				JOINT Foot_R
				{
					OFFSET -40.9854 0.0 0.0
					CHANNELS 6 Xposition Yposition Zposition Zrotation Xrotation Yrotation 
					JOINT Toes_R
					{
						OFFSET -11.7543 0.0 0.0
						CHANNELS 6 Xposition Yposition Zposition Zrotation Xrotation Yrotation 
						End Site
						{
							OFFSET 0.0 0.0 0.0
						}
					}
				}
			}
		}
	}
}
MOTION
Frames:	6
Frame Time:	0.0333333
0.000000 0.000000 0.000000 0.000000 0.000000 -0.000000 0.632423 88.688900 -29.155400 89.602400 4.523050 -3.214420 15.735700 0.000005 -0.000001 26.667700 85.837700 -25.483300 8.984550 -0.406207 -0.000000 -3.967820 -7.555310 2.110470 16.377300 -0.000001 -0.000001 1.796760 2.035630 -3.093940 6.456720 -0.000001 -0.000000 2.350080 4.211020 -1.532350 12.994200 -0.242716 4.980390 -92.546900 7.764540 -71.776400 5.348090 -0.000007 -0.000001 -69.926100 -9.534290 -1.391960 24.328600 0.000019 0.000005 38.513100 21.588800 -65.185800 22.291600 -0.000001 0.000005 53.392600 4.212680 21.121200 12.994500 -0.242716 -4.980390 89.174600 2.262160 -69.949400 -5.348130 -0.000001 -0.000004 -63.550600 -8.687090 15.237100 -24.328900 0.000322 -0.000009 0.050711 0.624427 -4.746980 -22.291500 -0.000108 -0.000004 51.051200 5.350230 -1.385060 -2.192480 -6.469440 -0.000000 -176.255000 -3.253330 9.080580 39.081100 -0.000007 -0.000012 0.005376 -0.011418 25.212200 40.985400 -0.000006 -0.000013 -0.872006 20.928500 -67.451200 11.754300 -0.000000 0.000003 -0.047006 -0.286930 -28.385600 -2.192510 6.469440 -0.000001 -177.130000 -0.021250 147.080000 -39.081100 -0.002282 -0.040193 0.010763 -0.022335 18.421300 -40.985400 0.000008 0.000006 -4.633380 -7.544250 -60.044800 -11.754300 -0.000006 -0.000006 -0.002243 0.199383 -8.483860
0.000000 0.000000 0.000000 0.000000 0.000000 -0.000000 0.056474 88.236400 -23.296200 88.126300 4.697180 -4.211730 15.735700 0.000005 -0.000001 18.490500 86.302900 -16.606800 8.984550 -0.406207 -0.000000 -5.322120 -7.219210 3.438950 16.377300 -0.000001 -0.000001 2.095670 2.048640 -3.548030 6.456720 -0.000001 -0.000000 2.713690 3.940470 -2.192310 12.994200 -0.242716 4.980390 -92.777800 8.376140 -71.578200 5.348090 -0.000007 -0.000001 -69.759600 -9.099940 1.010920 24.328600 0.000019 0.000005 35.293800 25.298600 -58.879600 22.291600 -0.000001 0.000005 52.914500 4.252230 20.521600 12.994500 -0.242716 -4.980390 88.925000 2.905760 -69.688400 -5.348130 -0.000001 -0.000004 -64.237200 -6.973380 13.581700 -24.328900 0.000322 -0.000009 -0.032099 -0.266248 -6.585140 -22.291500 -0.000108 -0.000004 49.973800 5.363390 -1.784330 -2.192480 -6.469440 -0.000000 -173.733000 -3.927960 6.954370 39.081100 -0.000007 -0.000012 0.038906 -0.064265 31.190000 40.985400 -0.000006 -0.000013 -2.096240 21.775900 -58.938500 11.754300 -0.000000 0.000003 -0.149315 -0.553397 -39.977300 -2.192510 6.469440 -0.000001 -174.755000 -1.129720 143.815000 -39.081100 -0.002282 -0.040193 0.040230 -0.071239 27.397600 -40.985400 0.000008 0.000006 -0.445362 -7.431130 -57.344000 -11.754300 -0.000006 -0.000006 -0.005833 0.236980 -6.952760
0.000000 0.000000 0.000000 0.000000 0.000000 -0.000000 -0.401538 87.914600 -17.275100 86.845300 3.723750 -2.901790 15.735700 0.000005 -0.000001 24.645800 86.616200 -22.228400 8.984550 -0.406207 -0.000000 -4.819740 -6.410390 4.572460 16.377300 -0.000001 -0.000001 2.143790 2.236290 -3.654700 6.456720 -0.000001 -0.000000 2.791800 3.853820 -2.985020 12.994200 -0.242716 4.980390 -92.832800 8.440300 -71.370100 5.348090 -0.000007 -0.000001 -70.411400 -9.461900 3.492350 24.328600 0.000019 0.000005 29.731000 27.579700 -50.963700 22.291600 -0.000001 0.000005 51.537100 4.325930 19.381700 12.994500 -0.242716 -4.980390 88.815300 3.201310 -69.680000 -5.348130 -0.000001 -0.000004 -66.233800 -3.599910 9.950290 -24.328900 0.000322 -0.000009 -0.158486 -1.252910 -7.163430 -22.291500 -0.000108 -0.000004 49.637400 5.376390 -2.185540 -2.192480 -6.469440 -0.000000 -171.380000 -4.947330 4.740450 39.081100 -0.000007 -0.000012 0.113437 -0.136249 39.779400 40.985400 -0.000006 -0.000013 -6.159180 21.725500 -45.251800 11.754300 -0.000000 0.000003 -0.155764 -0.566005 -40.551500 -2.192510 6.469440 -0.000001 -172.898000 -2.765060 145.011000 -39.081100 -0.002282 -0.040193 0.076466 -0.106049 34.605800 -40.985400 0.000008 0.000006 0.631766 -7.666930 -60.585700 -11.754300 -0.000006 -0.000006 -0.011412 0.281572 -5.130870
0.000000 0.000000 0.000000 0.000000 0.000000 -0.000000 -0.834917 87.588500 -11.875300 86.024700 3.525290 -0.642471 15.735700 0.000005 -0.000001 36.268900 86.417600 -33.498100 8.984550 -0.406207 -0.000000 -3.384040 -6.043090 5.368510 16.377300 -0.000001 -0.000001 2.227170 2.256110 -3.676050 6.456720 -0.000001 -0.000000 2.707000 3.716680 -3.571060 12.994200 -0.242716 4.980390 -92.974500 8.797740 -71.235700 5.348090 -0.000007 -0.000001 -70.497200 -9.153550 5.572010 24.328600 0.000019 0.000005 23.616000 28.436100 -42.554400 22.291600 -0.000001 0.000005 50.215900 4.382840 18.494700 12.994500 -0.242716 -4.980390 88.628600 3.715400 -69.723400 -5.348130 -0.000001 -0.000004 -68.121800 0.327236 5.012670 -24.328900 0.000322 -0.000009 -0.311661 -2.356050 -7.507010 -22.291500 -0.000108 -0.000004 49.342500 5.387250 -2.527500 -2.192480 -6.469440 -0.000000 -169.944000 -3.154070 -0.277983 39.081100 -0.000007 -0.000012 0.234190 -0.186936 51.402000 40.985400 -0.000006 -0.000013 -13.153700 18.707500 -30.489700 11.754300 -0.000000 0.000003 -0.003263 -0.043552 -18.348100 -2.192510 6.469440 -0.000001 -171.089000 -2.705290 148.328000 -39.081100 -0.002282 -0.040193 0.135362 -0.157109 40.054200 -40.985400 0.000008 0.000006 1.673800 -7.838570 -66.479400 -11.754300 -0.000006 -0.000006 -0.012064 0.286133 -4.944080
0.000000 0.000000 0.000000 0.000000 0.000000 -0.000000 -1.217020 87.730400 -7.194820 84.960600 4.450670 0.859104 15.735700 0.000005 -0.000001 44.541000 86.234400 -41.337700 8.984550 -0.406207 -0.000000 -2.321750 -5.648010 6.295970 16.377300 -0.000001 -0.000001 2.419860 1.725630 -3.475780 6.456720 -0.000001 -0.000000 2.755690 2.937650 -3.976700 12.994200 -0.242716 4.980390 -93.016100 8.901340 -71.195700 5.348090 -0.000007 -0.000001 -70.918900 -7.523100 6.051870 24.328600 0.000019 0.000005 18.372400 30.499200 -33.199700 22.291600 -0.000001 0.000005 49.114500 4.427630 17.777000 12.994500 -0.242716 -4.980390 88.503100 4.036960 -69.635800 -5.348130 -0.000001 -0.000004 -69.767000 3.717610 -0.017995 -24.328900 0.000322 -0.000009 -0.660706 -4.264460 -8.790490 -22.291500 -0.000108 -0.000004 48.972700 5.393700 -2.734310 -2.192480 -6.469440 -0.000000 -168.602000 -0.939229 -7.411310 39.081100 -0.000007 -0.000012 0.357901 -0.190465 61.979000 40.985400 -0.000006 -0.000013 -16.141300 13.603400 -23.858700 11.754300 -0.000000 0.000003 0.002325 0.062414 -14.045300 -2.192510 6.469440 -0.000001 -169.204000 -0.537868 152.443000 -39.081100 -0.002282 -0.040193 0.166497 -0.184343 41.522800 -40.985400 0.000008 0.000006 2.188600 -7.139320 -70.560100 -11.754300 -0.000006 -0.000006 -0.011621 0.283041 -5.070720
0.000000 0.000000 0.000000 0.000000 0.000000 -0.000000 -1.283980 88.494700 -2.817630 85.097900 4.817180 2.226500 15.735700 0.000005 -0.000001 55.109100 86.193300 -52.048000 8.984550 -0.406207 -0.000000 -1.391910 -4.598470 6.067030 16.377300 -0.000001 -0.000001 2.820340 1.080760 -2.856050 6.456720 -0.000001 -0.000000 3.036540 1.753080 -3.767780 12.994200 -0.242716 4.980390 -92.756300 8.151970 -71.246300 5.348090 -0.000007 -0.000001 -71.557200 -6.439560 6.472180 24.328600 0.000019 0.000005 13.572700 31.281800 -24.934000 22.291600 -0.000001 0.000005 47.496500 4.469450 17.100300 12.994500 -0.242716 -4.980390 88.481200 4.058860 -69.464600 -5.348130 -0.000001 -0.000004 -71.333100 8.102050 -4.961270 -24.328900 0.000322 -0.000009 -1.504670 -7.807890 -10.928500 -22.291500 -0.000108 -0.000004 49.081000 5.401160 -2.974620 -2.192480 -6.469440 -0.000000 -169.109000 0.314265 -13.416800 39.081100 -0.000007 -0.000012 0.323857 -0.124563 68.961400 40.985400 -0.000006 -0.000013 -14.482300 14.342700 -28.274100 11.754300 -0.000000 0.000003 0.002341 0.063452 -14.003200 -2.192510 6.469440 -0.000001 -169.193000 1.970490 157.846000 -39.081100 -0.002282 -0.040193 0.100720 -0.115741 40.093900 -40.985400 0.000008 0.000006 1.379900 -5.251200 -72.999200 -11.754300 -0.000006 -0.000006 -0.011302 0.280787 -5.163000
